<?xml version="1.0" standalone="no"?><!DOCTYPE svg PUBLIC "-//W3C//DTD SVG 1.1//EN" "http://www.w3.org/Graphics/SVG/1.1/DTD/svg11.dtd"><svg t="1715785860118" class="icon" viewBox="0 0 1024 1024" version="1.1" xmlns="http://www.w3.org/2000/svg" p-id="63169" xmlns:xlink="http://www.w3.org/1999/xlink" width="200" height="200"><path d="M666.709333 399.291733a22.596267 22.596267 0 0 0-45.1584 0c0 62.276267-50.6368 112.913067-112.913066 112.913067s-112.913067-50.6368-112.913067-112.913067a22.596267 22.596267 0 0 0-45.1584 0c0 87.176533 70.912 158.071467 158.088533 158.071467 87.1424 0 158.0544-70.894933 158.0544-158.071467z" fill="#000000" p-id="63170"></path><path d="M508.637867 60.552533c-186.811733 0-338.7392 151.944533-338.7392 338.756267 0 149.0944 99.908267 281.514667 240.913066 324.1984l-72.772266 208.0256a22.562133 22.562133 0 1 0 42.5984 14.8992l80.896-231.168a22.562133 22.562133 0 0 0-16.452267-29.474133c-133.290667-29.457067-230.024533-149.947733-230.024533-286.481067 0-161.877333 131.703467-293.5808 293.5808-293.5808 161.860267 0 293.563733 131.703467 293.563733 293.5808 0 12.151467-0.768 24.064-2.167467 35.857067-14.404267 117.998933-97.9968 214.903467-212.9408 246.766933a22.596267 22.596267 0 0 0-15.274666 29.201067l82.3808 235.298133a22.528 22.528 0 0 0 28.740266 13.8752c11.776-4.096 18.0224-16.981333 13.8752-28.7744l-74.615466-213.333333a337.066667 337.066667 0 0 0 222.6688-277.572267c1.672533-13.550933 2.5088-27.323733 2.5088-41.3184-0.017067-186.811733-151.944533-338.756267-338.7392-338.756267z" fill="#000000" p-id="63171"></path><path d="M418.133333 256m-34.133333 0a34.133333 34.133333 0 1 0 68.266667 0 34.133333 34.133333 0 1 0-68.266667 0Z" fill="#000000" p-id="63172"></path><path d="M608.7168 256m-34.133333 0a34.133333 34.133333 0 1 0 68.266666 0 34.133333 34.133333 0 1 0-68.266666 0Z" fill="#000000" p-id="63173"></path></svg>